<svg width="64" height="64" viewBox="0 0 64 64" fill="none" xmlns="http://www.w3.org/2000/svg">
<path d="M32 0.5C49.397 0.5 63.5 14.603 63.5 32C63.5 49.397 49.397 63.5 32 63.5C14.603 63.5 0.5 49.397 0.5 32C0.5 14.603 14.603 0.5 32 0.5Z" fill="url(#paint0_linear_134_9611)" fill-opacity="0.2"/>
<path d="M32 0.5C49.397 0.5 63.5 14.603 63.5 32C63.5 49.397 49.397 63.5 32 63.5C14.603 63.5 0.5 49.397 0.5 32C0.5 14.603 14.603 0.5 32 0.5Z" stroke="url(#paint1_linear_134_9611)" stroke-linejoin="round"/>
<path d="M27 27.5L29.942 29.2394C31.6572 30.2535 32.3428 30.2535 34.058 29.2394L37 27.5" stroke="white" stroke-width="1.5" stroke-linecap="round" stroke-linejoin="round"/>
<path d="M30.5 39.5C30.0337 39.4939 29.5668 39.485 29.0988 39.4732C25.9503 39.3941 24.3761 39.3545 23.245 38.2184C22.1138 37.0823 22.0811 35.5487 22.0158 32.4814C21.9948 31.4951 21.9947 30.5147 22.0158 29.5284C22.0811 26.4611 22.1138 24.9275 23.245 23.7914C24.3761 22.6553 25.9503 22.6157 29.0988 22.5366C31.0393 22.4878 32.9607 22.4878 34.9012 22.5366C38.0497 22.6157 39.6239 22.6553 40.755 23.7914C41.8862 24.9275 41.9189 26.4611 41.9842 29.5284C41.9939 29.9825 41.9991 30.1965 41.9999 30.5" stroke="white" stroke-width="1.5" stroke-linecap="round" stroke-linejoin="round"/>
<path d="M39 37C39 37.8284 38.3284 38.5 37.5 38.5C36.6716 38.5 36 37.8284 36 37C36 36.1716 36.6716 35.5 37.5 35.5C38.3284 35.5 39 36.1716 39 37ZM39 37V37.5C39 38.3284 39.6716 39 40.5 39C41.3284 39 42 38.3284 42 37.5V37C42 34.5147 39.9853 32.5 37.5 32.5C35.0147 32.5 33 34.5147 33 37C33 39.4853 35.0147 41.5 37.5 41.5" stroke="white" stroke-width="1.5" stroke-linecap="round" stroke-linejoin="round"/>
<defs>
<linearGradient id="paint0_linear_134_9611" x1="52" y1="-32" x2="25.0811" y2="76.1081" gradientUnits="userSpaceOnUse">
<stop stop-opacity="0"/>
<stop offset="0.861226" stop-color="#BA6EF4" stop-opacity="0.986921"/>
<stop offset="1" stop-color="#BC70F7"/>
</linearGradient>
<linearGradient id="paint1_linear_134_9611" x1="15.6" y1="46.8" x2="39.2" y2="-20" gradientUnits="userSpaceOnUse">
<stop stop-opacity="0"/>
<stop offset="1" stop-color="#7A5CE0"/>
</linearGradient>
</defs>
</svg>
