<svg width="64" height="64" viewBox="0 0 64 64" fill="none" xmlns="http://www.w3.org/2000/svg">
<path d="M32 0.5C49.397 0.5 63.5 14.603 63.5 32C63.5 49.397 49.397 63.5 32 63.5C14.603 63.5 0.5 49.397 0.5 32C0.5 14.603 14.603 0.5 32 0.5Z" fill="url(#paint0_linear_134_9620)" fill-opacity="0.2"/>
<path d="M32 0.5C49.397 0.5 63.5 14.603 63.5 32C63.5 49.397 49.397 63.5 32 63.5C14.603 63.5 0.5 49.397 0.5 32C0.5 14.603 14.603 0.5 32 0.5Z" stroke="url(#paint1_linear_134_9620)" stroke-linejoin="round"/>
<path d="M37 34.3045C37 33.9588 37 33.786 37.052 33.632C37.2032 33.1844 37.6018 33.0108 38.0011 32.8289C38.45 32.6244 38.6744 32.5222 38.8968 32.5042C39.1493 32.4838 39.4022 32.5382 39.618 32.6593C39.9041 32.8198 40.1036 33.1249 40.3079 33.373C41.2513 34.5188 41.7229 35.0918 41.8955 35.7236C42.0348 36.2334 42.0348 36.7666 41.8955 37.2764C41.6438 38.1979 40.8485 38.9704 40.2598 39.6854C39.9587 40.0511 39.8081 40.234 39.618 40.3407C39.4022 40.4618 39.1493 40.5162 38.8968 40.4958C38.6744 40.4778 38.45 40.3756 38.0011 40.1711C37.6018 39.9892 37.2032 39.8156 37.052 39.368C37 39.214 37 39.0412 37 38.6955V34.3045Z" stroke="white" stroke-width="1.5"/>
<path d="M27 34.3046C27 33.8694 26.9878 33.4782 26.6359 33.1722C26.5079 33.0609 26.3382 32.9836 25.9989 32.829C25.55 32.6246 25.3256 32.5224 25.1032 32.5044C24.4359 32.4504 24.0769 32.9058 23.6921 33.3732C22.7488 34.519 22.2771 35.0919 22.1045 35.7237C21.9652 36.2336 21.9652 36.7668 22.1045 37.2766C22.3562 38.1981 23.1515 38.9705 23.7402 39.6856C24.1113 40.1363 24.4658 40.5475 25.1032 40.496C25.3256 40.478 25.55 40.3757 25.9989 40.1713C26.3382 40.0167 26.5079 39.9394 26.6359 39.8281C26.9878 39.5221 27 39.131 27 38.6957V34.3046Z" stroke="white" stroke-width="1.5"/>
<path d="M39 32.5V30.5C39 26.634 35.866 23.5 32 23.5C28.134 23.5 25 26.634 25 30.5V32.5" stroke="white" stroke-width="1.5" stroke-linecap="square" stroke-linejoin="round"/>
<defs>
<linearGradient id="paint0_linear_134_9620" x1="52" y1="-32" x2="25.0811" y2="76.1081" gradientUnits="userSpaceOnUse">
<stop stop-opacity="0"/>
<stop offset="0.861226" stop-color="#BA6EF4" stop-opacity="0.986921"/>
<stop offset="1" stop-color="#BC70F7"/>
</linearGradient>
<linearGradient id="paint1_linear_134_9620" x1="15.6" y1="46.8" x2="39.2" y2="-20" gradientUnits="userSpaceOnUse">
<stop stop-opacity="0"/>
<stop offset="1" stop-color="#7A5CE0"/>
</linearGradient>
</defs>
</svg>
