<svg width="120" height="24" viewBox="0 0 120 24" fill="none" xmlns="http://www.w3.org/2000/svg">
<path fill-rule="evenodd" clip-rule="evenodd" d="M12 20C16.4183 20 20 16.4183 20 12C20 7.58172 16.4183 4 12 4C7.58172 4 4 7.58172 4 12C4 16.4183 7.58172 20 12 20ZM12 22C17.5228 22 22 17.5228 22 12C22 6.47715 17.5228 2 12 2C6.47715 2 2 6.47715 2 12C2 17.5228 6.47715 22 12 22Z" fill="white" fill-opacity="0.986921"/>
<path d="M12 10C12 9.44772 12.4477 9 13 9H14C14.5523 9 15 8.55229 15 8C15 7.44772 14.5523 7 14 7H13C11.3431 7 10 8.34315 10 10V12H9C8.44772 12 8 12.4477 8 13C8 13.5523 8.44771 14 9 14H10V20C10 20.5523 10.4477 21 11 21C11.5523 21 12 20.5523 12 20V14H14C14.5523 14 15 13.5523 15 13C15 12.4477 14.5523 12 14 12H12V10Z" fill="white" fill-opacity="0.986921"/>
<path fill-rule="evenodd" clip-rule="evenodd" d="M51.181 13.9998C49.5273 14.0045 48.4598 15.8884 49.4786 17.3157C50.9376 19.3596 53.5833 21 58.0003 21C64.8454 21 70.34 15.4217 69.5708 8.8311L70.6977 6.5773C71.4792 5.01428 70.1212 3.23622 68.4076 3.57894L66.9188 3.87669C66.5241 3.66843 66.1156 3.51127 65.7665 3.39741C65.0861 3.17552 64.2626 3 63.5003 3C62.131 3 60.9492 3.35131 60.01 4.05593C59.0815 4.75264 58.5585 5.66825 58.2715 6.50905C58.1392 6.89661 58.0511 7.28534 57.9946 7.65843C57.4633 7.49123 56.9216 7.26626 56.3913 6.99155C55.1881 6.36832 54.2151 5.57822 53.6663 4.88551C52.7455 3.7233 50.794 3.80947 50.1092 5.32021C49.1441 7.44947 49.4089 9.97346 50.2764 12.0129C50.5672 12.6964 50.9454 13.3721 51.4075 13.9983C51.3284 13.9992 51.2527 13.9996 51.181 13.9998ZM58.0002 19C54.1369 19 52.1392 17.6007 51.1063 16.1537C51.0599 16.0887 51.1067 16 51.1865 15.9998C52.2374 15.9968 54.3944 15.9471 55.817 15.1145C55.8906 15.0714 55.8744 14.9629 55.7936 14.9358C52.4774 13.8208 50.5924 9.09859 51.9307 6.1459C51.9614 6.0782 52.0524 6.06927 52.0986 6.12754C53.6275 8.05718 56.9703 9.9472 59.8786 9.99891C59.9417 10 59.9894 9.9427 59.9798 9.88033C59.8626 9.12053 59.4151 5 63.5002 5C64.4757 5 65.9271 5.47583 66.4617 5.9633C66.4864 5.98583 66.5199 5.99606 66.5527 5.9895L68.7997 5.5401C68.8813 5.52378 68.946 5.60845 68.9088 5.68288L67.5151 8.47019C67.5054 8.48954 67.5024 8.51175 67.5061 8.53306C68.4822 14.02 63.9882 19 58.0002 19Z" fill="white" fill-opacity="0.986921"/>
<path fill-rule="evenodd" clip-rule="evenodd" d="M112 4H104C101.791 4 100 5.79086 100 8V16C100 18.2091 101.791 20 104 20H112C114.209 20 116 18.2091 116 16V8C116 5.79086 114.209 4 112 4ZM104 2C100.686 2 98 4.68629 98 8V16C98 19.3137 100.686 22 104 22H112C115.314 22 118 19.3137 118 16V8C118 4.68629 115.314 2 112 2H104Z" fill="white" fill-opacity="0.986921"/>
<path d="M113 8C113.552 8 114 7.55228 114 7C114 6.44772 113.552 6 113 6C112.448 6 112 6.44772 112 7C112 7.55228 112.448 8 113 8Z" fill="white" fill-opacity="0.986921"/>
<path fill-rule="evenodd" clip-rule="evenodd" d="M113 12C113 14.7614 110.761 17 108 17C105.239 17 103 14.7614 103 12C103 9.23858 105.239 7 108 7C110.761 7 113 9.23858 113 12ZM111 12C111 13.6569 109.657 15 108 15C106.343 15 105 13.6569 105 12C105 10.3431 106.343 9 108 9C109.657 9 111 10.3431 111 12Z" fill="white" fill-opacity="0.986921"/>
</svg>
