<svg width="19" height="19" viewBox="0 0 19 19" fill="none" xmlns="http://www.w3.org/2000/svg">
<path fill-rule="evenodd" clip-rule="evenodd" d="M14.8925 0.60556C14.8234 0.253745 14.515 0 14.1565 0C13.798 0 13.4896 0.253745 13.4206 0.60556C13.0688 2.39768 11.6607 3.8155 9.93523 4.16238C9.58493 4.23279 9.33303 4.54044 9.33303 4.89767C9.33303 5.2549 9.58493 5.56256 9.93523 5.63296C11.6611 5.97993 13.0685 7.39569 13.4202 9.18741C13.4892 9.53925 13.7976 9.79295 14.1561 9.79295C14.5146 9.79295 14.823 9.53925 14.8921 9.18741C15.2437 7.39578 16.6515 5.97994 18.3775 5.63296C18.7277 5.56256 18.9797 5.2549 18.9797 4.89767C18.9797 4.54044 18.7277 4.23279 18.3775 4.16238C16.652 3.81551 15.2442 2.39776 14.8925 0.60556ZM0 7.52724C0 6.97496 0.447715 6.52724 1 6.52724L7.32223 6.52734C7.87453 6.52734 8.32223 6.97506 8.32223 7.52734C8.32223 8.07963 7.87453 8.52734 7.32223 8.52734L1 8.52724C0.447715 8.52724 0 8.07953 0 7.52724ZM1 11.3709C0.447715 11.3709 0 11.8187 0 12.3709C0 12.9232 0.447715 13.3709 1 13.3709L17.7666 13.371C18.3189 13.371 18.7666 12.9233 18.7666 12.371C18.7666 11.8188 18.3189 11.371 17.7666 11.371L1 11.3709ZM0 17.2186C0 16.6663 0.447715 16.2186 1 16.2186L17.7666 16.2188C18.3189 16.2188 18.7666 16.6665 18.7666 17.2188C18.7666 17.771 18.3189 18.2188 17.7666 18.2188L1 18.2186C0.447715 18.2186 0 17.7709 0 17.2186Z" fill="white"/>
</svg>
